<?xml version="1.0" encoding="UTF-8" standalone="no"?><!DOCTYPE svg PUBLIC "-//W3C//DTD SVG 1.1//EN" "http://www.w3.org/Graphics/SVG/1.1/DTD/svg11.dtd"><svg width="100%" height="100%" viewBox="0 0 128 128" version="1.1" xmlns="http://www.w3.org/2000/svg" xmlns:xlink="http://www.w3.org/1999/xlink" xml:space="preserve" style="fill-rule:evenodd;clip-rule:evenodd;stroke-linejoin:round;stroke-miterlimit:1.41421;"><path d="M64,0c35.323,0 64,28.677 64,64c0,35.323 -28.677,64 -64,64c-35.323,0 -64,-28.677 -64,-64c0,-35.323 28.677,-64 64,-64Zm0.199,43.801c-0.637,-3.344 -3.748,-9.722 -4.659,-11.322c-1.286,-2.258 3.629,-4.645 7.617,11.439c3.439,-0.723 6.543,-4.242 15.572,-2.608c9.218,1.668 11.998,14.118 11.326,22.037c-0.672,7.919 -15.2,29.659 -21.565,32.521c-6.364,2.862 -7.162,-3.671 -10.37,-2.001c-10.243,5.331 -14.419,-3.134 -14.419,-3.134c0,0 -7.616,-9.437 -12.6,-24.595c-4.985,-15.159 6.074,-24.528 12.918,-27.058c6.544,-2.419 12.367,4 16.18,4.721Z" style="fill:#e41b23;"/></svg>