<?xml version="1.0" encoding="UTF-8" standalone="no"?><!DOCTYPE svg PUBLIC "-//W3C//DTD SVG 1.1//EN" "http://www.w3.org/Graphics/SVG/1.1/DTD/svg11.dtd"><svg width="100%" height="100%" viewBox="0 0 128 128" version="1.1" xmlns="http://www.w3.org/2000/svg" xmlns:xlink="http://www.w3.org/1999/xlink" xml:space="preserve" style="fill-rule:evenodd;clip-rule:evenodd;stroke-linejoin:round;stroke-miterlimit:1.41421;"><path d="M64,0c35.323,0 64,28.677 64,64c0,35.323 -28.677,64 -64,64c-35.323,0 -64,-28.677 -64,-64c0,-35.323 28.677,-64 64,-64Zm-23.62,88.9c-5.473,-3.595 -7.074,-8.135 -7.907,-13.978c-1.445,-10.148 7.621,-17.325 21.214,-25.601c13.593,-8.276 15.635,-18.593 15.635,-18.593l3.272,3.807l2.356,-1.29c-1.871,5.925 5.788,18.404 8.388,21.303c2.6,2.899 16.961,19.979 10.831,31.107c-2.869,5.208 -5.639,8.597 -10.064,10.303c1.967,-27.974 -6.039,-35.968 -6.039,-35.968c7.589,16.739 1.676,32.734 -0.304,37.223c-3.875,0.229 -8.718,-0.207 -14.987,-1.274c1.022,-8.118 3.927,-34.858 3.927,-34.858c-2.407,2.644 -7.767,26.389 -9.401,33.831c-4.925,-1.027 -8.847,-2.173 -11.982,-3.463c-4.376,-17.774 13.685,-36.777 13.685,-36.777c-16.027,10.288 -18.396,26.964 -18.624,34.228Z" style="fill:#e1e1e1;"/></svg>