<?xml version="1.0" encoding="UTF-8" standalone="no"?><!DOCTYPE svg PUBLIC "-//W3C//DTD SVG 1.1//EN" "http://www.w3.org/Graphics/SVG/1.1/DTD/svg11.dtd"><svg width="100%" height="100%" viewBox="0 0 128 128" version="1.1" xmlns="http://www.w3.org/2000/svg" xmlns:xlink="http://www.w3.org/1999/xlink" xml:space="preserve" style="fill-rule:evenodd;clip-rule:evenodd;stroke-linejoin:round;stroke-miterlimit:1.41421;"><path d="M64,0c35.323,0 64,28.677 64,64c0,35.323 -28.677,64 -64,64c-35.323,0 -64,-28.677 -64,-64c0,-35.323 28.677,-64 64,-64Zm16.44,27.675c0,0 -0.876,7.392 -3.56,8.943c0,0 -5.716,-3.952 -8.492,-2.132c-2.777,1.819 -5.027,2.76 -9.814,11.709c-4.787,8.95 -11.74,11.932 -13.727,14.45c-1.987,2.517 -8.201,14.205 -5.008,23.022c3.193,8.816 11.244,15.808 12.487,16.367c1.244,0.558 17.417,1.444 25.794,-9.425c8.377,-10.869 7.49,-23.207 7.977,-29.495c0.488,-6.288 5.251,-18.667 1.583,-19.757c-3.668,-1.089 -8.293,-0.92 -5.523,-4.562c2.769,-3.643 4.288,-7.096 4.288,-7.096l-6.005,-2.024Z" style="fill:#f89828;"/></svg>